<?xml version="1.0" encoding="UTF-8" standalone="no"?>
<!DOCTYPE svg PUBLIC "-//W3C//DTD SVG 1.1//EN"
 "http://www.w3.org/Graphics/SVG/1.1/DTD/svg11.dtd">
<!-- Generated by graphviz version 2.40.1 (20161225.0304)
 -->
<!-- Title: dependencies Pages: 1 -->
<svg width="1332pt" height="284pt"
 viewBox="0.00 0.00 1332.00 284.00" xmlns="http://www.w3.org/2000/svg" xmlns:xlink="http://www.w3.org/1999/xlink">
<g id="graph0" class="graph" transform="scale(1 1) rotate(0) translate(4 280)">
<title>dependencies</title>
<polygon fill="#ffffff" stroke="transparent" points="-4,4 -4,-280 1328,-280 1328,4 -4,4"/>
<text text-anchor="start" x="641.0091" y="-42.4" font-family="sans-serif" font-weight="bold" font-size="14.00" fill="#000000">Legend</text>
<polygon fill="#ffffb3" stroke="transparent" points="428,-10 428,-30 448,-30 448,-10 428,-10"/>
<text text-anchor="start" x="451.629" y="-15.4" font-family="sans-serif" font-size="14.00" fill="#000000"> &#160;Declarations</text>
<polygon fill="#8dd3c7" stroke="transparent" points="541,-10 541,-30 561,-30 561,-10 541,-10"/>
<text text-anchor="start" x="564.7251" y="-15.4" font-family="sans-serif" font-size="14.00" fill="#000000"> &#160;Module</text>
<polygon fill="#80b1d3" stroke="transparent" points="627,-10 627,-30 647,-30 647,-10 627,-10"/>
<text text-anchor="start" x="650.7812" y="-15.4" font-family="sans-serif" font-size="14.00" fill="#000000"> &#160;Bootstrap</text>
<polygon fill="#fdb462" stroke="transparent" points="724,-10 724,-30 744,-30 744,-10 724,-10"/>
<text text-anchor="start" x="747.6732" y="-15.4" font-family="sans-serif" font-size="14.00" fill="#000000"> &#160;Providers</text>
<polygon fill="#fb8072" stroke="transparent" points="820,-10 820,-30 840,-30 840,-10 820,-10"/>
<text text-anchor="start" x="843.7258" y="-15.4" font-family="sans-serif" font-size="14.00" fill="#000000"> &#160;Exports</text>
<g id="clust1" class="cluster">
<title>cluster_AppModule</title>
<polygon fill="none" stroke="#000000" stroke-dasharray="1,5" points="8,-70 8,-268 1316,-268 1316,-70 8,-70"/>
</g>
<g id="clust2" class="cluster">
<title>cluster_AppModule_declarations</title>
<polygon fill="none" stroke="#000000" points="168,-78 168,-130 1308,-130 1308,-78 168,-78"/>
</g>
<g id="clust10" class="cluster">
<title>cluster_AppModule_imports</title>
<polygon fill="none" stroke="#000000" points="16,-78 16,-130 160,-130 160,-78 16,-78"/>
</g>
<g id="clust12" class="cluster">
<title>cluster_AppModule_bootstrap</title>
<polygon fill="none" stroke="#000000" points="641,-208 641,-260 765,-260 765,-208 641,-208"/>
</g>
<!-- AppComponent -->
<g id="node1" class="node">
<title>AppComponent</title>
<polygon fill="#ffffb3" stroke="#000000" points="1299.9399,-122 1194.0601,-122 1194.0601,-86 1299.9399,-86 1299.9399,-122"/>
<text text-anchor="middle" x="1247" y="-99.8" font-family="Times,serif" font-size="14.00" fill="#000000">AppComponent</text>
</g>
<!-- AppModule -->
<g id="node8" class="node">
<title>AppModule</title>
<polygon fill="#8dd3c7" stroke="#000000" points="744.6571,-187 741.6571,-191 720.6571,-191 717.6571,-187 661.3429,-187 661.3429,-151 744.6571,-151 744.6571,-187"/>
<text text-anchor="middle" x="703" y="-164.8" font-family="Times,serif" font-size="14.00" fill="#000000">AppModule</text>
</g>
<!-- AppComponent&#45;&gt;AppModule -->
<g id="edge1" class="edge">
<title>AppComponent&#45;&gt;AppModule</title>
<path fill="none" stroke="#000000" d="M1247,-122.2921C1247,-144.2057 1247,-178 1247,-178 1247,-178 754.7835,-178 754.7835,-178"/>
<polygon fill="#000000" stroke="#000000" points="754.7835,-174.5001 744.7835,-178 754.7834,-181.5001 754.7835,-174.5001"/>
</g>
<!-- MainGraphComponent -->
<g id="node2" class="node">
<title>MainGraphComponent</title>
<polygon fill="#ffffb3" stroke="#000000" points="1175.8641,-122 1030.1359,-122 1030.1359,-86 1175.8641,-86 1175.8641,-122"/>
<text text-anchor="middle" x="1103" y="-99.8" font-family="Times,serif" font-size="14.00" fill="#000000">MainGraphComponent</text>
</g>
<!-- MainGraphComponent&#45;&gt;AppModule -->
<g id="edge2" class="edge">
<title>MainGraphComponent&#45;&gt;AppModule</title>
<path fill="none" stroke="#000000" d="M1103,-122.1061C1103,-141.3391 1103,-169 1103,-169 1103,-169 754.675,-169 754.675,-169"/>
<polygon fill="#000000" stroke="#000000" points="754.6751,-165.5001 744.675,-169 754.675,-172.5001 754.6751,-165.5001"/>
</g>
<!-- MainInfoComponent -->
<g id="node3" class="node">
<title>MainInfoComponent</title>
<polygon fill="#ffffb3" stroke="#000000" points="1012.2036,-122 877.7964,-122 877.7964,-86 1012.2036,-86 1012.2036,-122"/>
<text text-anchor="middle" x="945" y="-99.8" font-family="Times,serif" font-size="14.00" fill="#000000">MainInfoComponent</text>
</g>
<!-- MainInfoComponent&#45;&gt;AppModule -->
<g id="edge3" class="edge">
<title>MainInfoComponent&#45;&gt;AppModule</title>
<path fill="none" stroke="#000000" d="M945,-122.027C945,-138.3976 945,-160 945,-160 945,-160 754.8769,-160 754.8769,-160"/>
<polygon fill="#000000" stroke="#000000" points="754.8769,-156.5001 744.8769,-160 754.8769,-163.5001 754.8769,-156.5001"/>
</g>
<!-- MainStatsComponent -->
<g id="node4" class="node">
<title>MainStatsComponent</title>
<polygon fill="#ffffb3" stroke="#000000" points="860.1052,-122 721.8948,-122 721.8948,-86 860.1052,-86 860.1052,-122"/>
<text text-anchor="middle" x="791" y="-99.8" font-family="Times,serif" font-size="14.00" fill="#000000">MainStatsComponent</text>
</g>
<!-- MainStatsComponent&#45;&gt;AppModule -->
<g id="edge4" class="edge">
<title>MainStatsComponent&#45;&gt;AppModule</title>
<path fill="none" stroke="#000000" d="M733.3878,-122.1061C733.3878,-122.1061 733.3878,-140.991 733.3878,-140.991"/>
<polygon fill="#000000" stroke="#000000" points="729.8879,-140.9909 733.3878,-150.991 736.8879,-140.991 729.8879,-140.9909"/>
</g>
<!-- SidebarCompareComponent -->
<g id="node5" class="node">
<title>SidebarCompareComponent</title>
<polygon fill="#ffffb3" stroke="#000000" points="703.9129,-122 528.0871,-122 528.0871,-86 703.9129,-86 703.9129,-122"/>
<text text-anchor="middle" x="616" y="-99.8" font-family="Times,serif" font-size="14.00" fill="#000000">SidebarCompareComponent</text>
</g>
<!-- SidebarCompareComponent&#45;&gt;AppModule -->
<g id="edge5" class="edge">
<title>SidebarCompareComponent&#45;&gt;AppModule</title>
<path fill="none" stroke="#000000" d="M682.439,-122.1061C682.439,-122.1061 682.439,-140.991 682.439,-140.991"/>
<polygon fill="#000000" stroke="#000000" points="678.9391,-140.9909 682.439,-150.991 685.9391,-140.991 678.9391,-140.9909"/>
</g>
<!-- SidebarEditComponent -->
<g id="node6" class="node">
<title>SidebarEditComponent</title>
<polygon fill="#ffffb3" stroke="#000000" points="510.9298,-122 363.0702,-122 363.0702,-86 510.9298,-86 510.9298,-122"/>
<text text-anchor="middle" x="437" y="-99.8" font-family="Times,serif" font-size="14.00" fill="#000000">SidebarEditComponent</text>
</g>
<!-- SidebarEditComponent&#45;&gt;AppModule -->
<g id="edge6" class="edge">
<title>SidebarEditComponent&#45;&gt;AppModule</title>
<path fill="none" stroke="#000000" d="M437,-122.027C437,-138.3976 437,-160 437,-160 437,-160 651.1449,-160 651.1449,-160"/>
<polygon fill="#000000" stroke="#000000" points="651.1449,-163.5001 661.1449,-160 651.1448,-156.5001 651.1449,-163.5001"/>
</g>
<!-- SidebarManageComponent -->
<g id="node7" class="node">
<title>SidebarManageComponent</title>
<polygon fill="#ffffb3" stroke="#000000" points="345.6839,-122 176.3161,-122 176.3161,-86 345.6839,-86 345.6839,-122"/>
<text text-anchor="middle" x="261" y="-99.8" font-family="Times,serif" font-size="14.00" fill="#000000">SidebarManageComponent</text>
</g>
<!-- SidebarManageComponent&#45;&gt;AppModule -->
<g id="edge7" class="edge">
<title>SidebarManageComponent&#45;&gt;AppModule</title>
<path fill="none" stroke="#000000" d="M261,-122.1061C261,-141.3391 261,-169 261,-169 261,-169 651.0192,-169 651.0192,-169"/>
<polygon fill="#000000" stroke="#000000" points="651.0193,-172.5001 661.0192,-169 651.0192,-165.5001 651.0193,-172.5001"/>
</g>
<!-- AppComponent  -->
<g id="node10" class="node">
<title>AppComponent </title>
<polygon fill="#80b1d3" stroke="#000000" points="757.439,-252 648.561,-252 648.561,-216 757.439,-216 757.439,-252"/>
<text text-anchor="middle" x="703" y="-229.8" font-family="Times,serif" font-size="14.00" fill="#000000">AppComponent </text>
</g>
<!-- AppModule&#45;&gt;AppComponent  -->
<g id="edge9" class="edge">
<title>AppModule&#45;&gt;AppComponent </title>
<path fill="none" stroke="#000000" stroke-dasharray="1,5" d="M703,-187.1061C703,-187.1061 703,-205.991 703,-205.991"/>
<polygon fill="#000000" stroke="#000000" points="699.5001,-205.9909 703,-215.991 706.5001,-205.991 699.5001,-205.9909"/>
</g>
<!-- AppRoutingModule -->
<g id="node9" class="node">
<title>AppRoutingModule</title>
<polygon fill="#8dd3c7" stroke="#000000" points="152.2744,-122 149.2744,-126 128.2744,-126 125.2744,-122 23.7256,-122 23.7256,-86 152.2744,-86 152.2744,-122"/>
<text text-anchor="middle" x="88" y="-99.8" font-family="Times,serif" font-size="14.00" fill="#000000">AppRoutingModule</text>
</g>
<!-- AppRoutingModule&#45;&gt;AppModule -->
<g id="edge8" class="edge">
<title>AppRoutingModule&#45;&gt;AppModule</title>
<path fill="none" stroke="#000000" d="M88,-122.2921C88,-144.2057 88,-178 88,-178 88,-178 651.2121,-178 651.2121,-178"/>
<polygon fill="#000000" stroke="#000000" points="651.2121,-181.5001 661.2121,-178 651.212,-174.5001 651.2121,-181.5001"/>
</g>
</g>
</svg>
